solid OpenSCAD_Model
  facet normal -2.22045e-016 0 1
    outer loop
      vertex 4.15 49.6 9.21485e-016
      vertex 6.15 49.6 1.36557e-015
      vertex 4.15 50.35 9.21485e-016
    endloop
  endfacet
  facet normal -2.22045e-016 0 1
    outer loop
      vertex 6.15 49.6 1.36557e-015
      vertex 4.15 49.6 9.21485e-016
      vertex 6.15 48.1 1.36557e-015
    endloop
  endfacet
  facet normal -2.22045e-016 0 1
    outer loop
      vertex 2 48.1 4.44089e-016
      vertex 4.15 49.6 9.21485e-016
      vertex 2 49.6 4.44089e-016
    endloop
  endfacet
  facet normal -2.22045e-016 0 1
    outer loop
      vertex 4.15 49.6 9.21485e-016
      vertex 2 48.1 4.44089e-016
      vertex 6.15 48.1 1.36557e-015
    endloop
  endfacet
  facet normal -2.22045e-016 0 1
    outer loop
      vertex 0 49.6 0
      vertex 2 48.1 4.44089e-016
      vertex 2 49.6 4.44089e-016
    endloop
  endfacet
  facet normal -2.22045e-016 0 1
    outer loop
      vertex 2 48.1 4.44089e-016
      vertex 0 49.6 0
      vertex 2 47.1 4.44089e-016
    endloop
  endfacet
  facet normal -2.22045e-016 0 1
    outer loop
      vertex 2 47.1 4.44089e-016
      vertex 0 49.6 0
      vertex 2 42 4.44089e-016
    endloop
  endfacet
  facet normal -2.22045e-016 0 1
    outer loop
      vertex 2 42 4.44089e-016
      vertex 0 49.6 0
      vertex 2 7.6 4.44089e-016
    endloop
  endfacet
  facet normal -2.22045e-016 0 1
    outer loop
      vertex 0 0 0
      vertex 2 7.6 4.44089e-016
      vertex 0 49.6 0
    endloop
  endfacet
  facet normal -2.22045e-016 0 1
    outer loop
      vertex 2 7.6 4.44089e-016
      vertex 0 0 0
      vertex 2 2.5 4.44089e-016
    endloop
  endfacet
  facet normal -2.22045e-016 0 1
    outer loop
      vertex 2 47.1 4.44089e-016
      vertex 6.15 42 1.36557e-015
      vertex 6.15 47.1 1.36557e-015
    endloop
  endfacet
  facet normal -2.22045e-016 0 1
    outer loop
      vertex 6.15 42 1.36557e-015
      vertex 2 47.1 4.44089e-016
      vertex 2 42 4.44089e-016
    endloop
  endfacet
  facet normal -2.22045e-016 0 1
    outer loop
      vertex 2 7.6 4.44089e-016
      vertex 6.15 2.5 1.36557e-015
      vertex 6.15 7.6 1.36557e-015
    endloop
  endfacet
  facet normal -2.22045e-016 0 1
    outer loop
      vertex 6.15 2.5 1.36557e-015
      vertex 2 7.6 4.44089e-016
      vertex 2 2.5 4.44089e-016
    endloop
  endfacet
  facet normal -2.22045e-016 0 1
    outer loop
      vertex 6.15 1.5 1.36557e-015
      vertex 4.15 0 9.21485e-016
      vertex 6.15 0 1.36557e-015
    endloop
  endfacet
  facet normal -2.22045e-016 0 1
    outer loop
      vertex 2 1.5 4.44089e-016
      vertex 4.15 0 9.21485e-016
      vertex 6.15 1.5 1.36557e-015
    endloop
  endfacet
  facet normal -2.22045e-016 0 1
    outer loop
      vertex 2 1.5 4.44089e-016
      vertex 0 0 0
      vertex 4.15 0 9.21485e-016
    endloop
  endfacet
  facet normal -2.22045e-016 0 1
    outer loop
      vertex 2 2.5 4.44089e-016
      vertex 0 0 0
      vertex 2 1.5 4.44089e-016
    endloop
  endfacet
  facet normal -2.22045e-016 0 1
    outer loop
      vertex 6.15 0 1.36557e-015
      vertex 4.15 0 9.21485e-016
      vertex 4.15 -0.75 9.21485e-016
    endloop
  endfacet
  facet normal 1 -0 0
    outer loop
      vertex 6.15 0 1.36557e-015
      vertex 6.15 1.5 -7.6
      vertex 6.15 1.5 1.36557e-015
    endloop
  endfacet
  facet normal 1 0 0
    outer loop
      vertex 6.15 1.5 -7.6
      vertex 6.15 0 1.36557e-015
      vertex 6.15 0 -7.6
    endloop
  endfacet
  facet normal 1 -0 0
    outer loop
      vertex 6.15 2.5 1.36557e-015
      vertex 6.15 7.6 -7.6
      vertex 6.15 7.6 1.36557e-015
    endloop
  endfacet
  facet normal 1 0 0
    outer loop
      vertex 6.15 7.6 -7.6
      vertex 6.15 2.5 1.36557e-015
      vertex 6.15 2.5 -7.6
    endloop
  endfacet
  facet normal 0 0 -1
    outer loop
      vertex 4.15 0 -7.6
      vertex 6.15 0 -7.6
      vertex 4.15 -0.75 -7.6
    endloop
  endfacet
  facet normal 0 0 -1
    outer loop
      vertex 6.15 0 -7.6
      vertex 4.15 0 -7.6
      vertex 6.15 1.5 -7.6
    endloop
  endfacet
  facet normal 0 0 -1
    outer loop
      vertex 4.15 0 -7.6
      vertex 2 1.5 -7.6
      vertex 6.15 1.5 -7.6
    endloop
  endfacet
  facet normal 0 0 -1
    outer loop
      vertex 1.68754e-015 0 -7.6
      vertex 2 2.5 -7.6
      vertex 2 1.5 -7.6
    endloop
  endfacet
  facet normal -0 0 -1
    outer loop
      vertex 2 2.5 -7.6
      vertex 1.68754e-015 0 -7.6
      vertex 2 7.6 -7.6
    endloop
  endfacet
  facet normal -0 0 -1
    outer loop
      vertex 2 7.6 -7.6
      vertex 1.68754e-015 0 -7.6
      vertex 2 42 -7.6
    endloop
  endfacet
  facet normal 0 0 -1
    outer loop
      vertex 1.68754e-015 49.6 -7.6
      vertex 2 42 -7.6
      vertex 1.68754e-015 0 -7.6
    endloop
  endfacet
  facet normal 0 0 -1
    outer loop
      vertex 2 47.1 -7.6
      vertex 1.68754e-015 49.6 -7.6
      vertex 2 48.1 -7.6
    endloop
  endfacet
  facet normal 0 0 -1
    outer loop
      vertex 1.68754e-015 0 -7.6
      vertex 2 1.5 -7.6
      vertex 4.15 0 -7.6
    endloop
  endfacet
  facet normal 0 0 -1
    outer loop
      vertex 2 42 -7.6
      vertex 1.68754e-015 49.6 -7.6
      vertex 2 47.1 -7.6
    endloop
  endfacet
  facet normal 0 0 -1
    outer loop
      vertex 2 48.1 -7.6
      vertex 1.68754e-015 49.6 -7.6
      vertex 2 49.6 -7.6
    endloop
  endfacet
  facet normal 0 0 -1
    outer loop
      vertex 2 2.5 -7.6
      vertex 6.15 7.6 -7.6
      vertex 6.15 2.5 -7.6
    endloop
  endfacet
  facet normal -0 0 -1
    outer loop
      vertex 6.15 7.6 -7.6
      vertex 2 2.5 -7.6
      vertex 2 7.6 -7.6
    endloop
  endfacet
  facet normal 0 0 -1
    outer loop
      vertex 2 42 -7.6
      vertex 6.15 47.1 -7.6
      vertex 6.15 42 -7.6
    endloop
  endfacet
  facet normal -0 0 -1
    outer loop
      vertex 6.15 47.1 -7.6
      vertex 2 42 -7.6
      vertex 2 47.1 -7.6
    endloop
  endfacet
  facet normal 0 0 -1
    outer loop
      vertex 6.15 48.1 -7.6
      vertex 4.15 49.6 -7.6
      vertex 6.15 49.6 -7.6
    endloop
  endfacet
  facet normal 0 0 -1
    outer loop
      vertex 2 48.1 -7.6
      vertex 4.15 49.6 -7.6
      vertex 6.15 48.1 -7.6
    endloop
  endfacet
  facet normal -0 0 -1
    outer loop
      vertex 4.15 49.6 -7.6
      vertex 2 48.1 -7.6
      vertex 2 49.6 -7.6
    endloop
  endfacet
  facet normal 0 0 -1
    outer loop
      vertex 6.15 49.6 -7.6
      vertex 4.15 49.6 -7.6
      vertex 4.15 50.35 -7.6
    endloop
  endfacet
  facet normal 0 1 -0
    outer loop
      vertex 6.15 7.6 -7.6
      vertex 2 7.6 4.44089e-016
      vertex 6.15 7.6 1.36557e-015
    endloop
  endfacet
  facet normal 0 1 0
    outer loop
      vertex 2 7.6 4.44089e-016
      vertex 6.15 7.6 -7.6
      vertex 2 7.6 -7.6
    endloop
  endfacet
  facet normal 1 -0 0
    outer loop
      vertex 2 7.6 4.44089e-016
      vertex 2 42 -7.6
      vertex 2 42 4.44089e-016
    endloop
  endfacet
  facet normal 1 0 0
    outer loop
      vertex 2 42 -7.6
      vertex 2 7.6 4.44089e-016
      vertex 2 7.6 -7.6
    endloop
  endfacet
  facet normal 1 -0 0
    outer loop
      vertex 2 47.1 4.44089e-016
      vertex 2 48.1 -7.6
      vertex 2 48.1 4.44089e-016
    endloop
  endfacet
  facet normal 1 0 0
    outer loop
      vertex 2 48.1 -7.6
      vertex 2 47.1 4.44089e-016
      vertex 2 47.1 -7.6
    endloop
  endfacet
  facet normal 1 -0 0
    outer loop
      vertex 2 1.5 4.44089e-016
      vertex 2 2.5 -7.6
      vertex 2 2.5 4.44089e-016
    endloop
  endfacet
  facet normal 1 0 0
    outer loop
      vertex 2 2.5 -7.6
      vertex 2 1.5 4.44089e-016
      vertex 2 1.5 -7.6
    endloop
  endfacet
  facet normal 0 -1 0
    outer loop
      vertex 1.68754e-015 0 -7.6
      vertex 4.15 0 9.21485e-016
      vertex 0 0 0
    endloop
  endfacet
  facet normal 0 -1 -0
    outer loop
      vertex 4.15 0 9.21485e-016
      vertex 1.68754e-015 0 -7.6
      vertex 4.15 0 -7.6
    endloop
  endfacet
  facet normal 0 1 -0
    outer loop
      vertex 6.15 1.5 -7.6
      vertex 2 1.5 4.44089e-016
      vertex 6.15 1.5 1.36557e-015
    endloop
  endfacet
  facet normal 0 1 0
    outer loop
      vertex 2 1.5 4.44089e-016
      vertex 6.15 1.5 -7.6
      vertex 2 1.5 -7.6
    endloop
  endfacet
  facet normal 0 -1 0
    outer loop
      vertex 2 2.5 -7.6
      vertex 6.15 2.5 1.36557e-015
      vertex 2 2.5 4.44089e-016
    endloop
  endfacet
  facet normal 0 -1 -0
    outer loop
      vertex 6.15 2.5 1.36557e-015
      vertex 2 2.5 -7.6
      vertex 6.15 2.5 -7.6
    endloop
  endfacet
  facet normal -1 0 0
    outer loop
      vertex 4.15 -0.75 -7.6
      vertex 4.15 0 9.21485e-016
      vertex 4.15 0 -7.6
    endloop
  endfacet
  facet normal -1 -0 0
    outer loop
      vertex 4.15 0 9.21485e-016
      vertex 4.15 -0.75 -7.6
      vertex 4.15 -0.75 9.21485e-016
    endloop
  endfacet
  facet normal 0.351123 -0.936329 0
    outer loop
      vertex 4.15 -0.75 -7.6
      vertex 6.15 0 1.36557e-015
      vertex 4.15 -0.75 9.21485e-016
    endloop
  endfacet
  facet normal 0.351123 -0.936329 0
    outer loop
      vertex 6.15 0 1.36557e-015
      vertex 4.15 -0.75 -7.6
      vertex 6.15 0 -7.6
    endloop
  endfacet
  facet normal 1 -0 0
    outer loop
      vertex 6.15 48.1 1.36557e-015
      vertex 6.15 49.6 -7.6
      vertex 6.15 49.6 1.36557e-015
    endloop
  endfacet
  facet normal 1 0 0
    outer loop
      vertex 6.15 49.6 -7.6
      vertex 6.15 48.1 1.36557e-015
      vertex 6.15 48.1 -7.6
    endloop
  endfacet
  facet normal 1 -0 0
    outer loop
      vertex 6.15 42 1.36557e-015
      vertex 6.15 47.1 -7.6
      vertex 6.15 47.1 1.36557e-015
    endloop
  endfacet
  facet normal 1 0 0
    outer loop
      vertex 6.15 47.1 -7.6
      vertex 6.15 42 1.36557e-015
      vertex 6.15 42 -7.6
    endloop
  endfacet
  facet normal 0 -1 0
    outer loop
      vertex 2 42 -7.6
      vertex 6.15 42 1.36557e-015
      vertex 2 42 4.44089e-016
    endloop
  endfacet
  facet normal 0 -1 -0
    outer loop
      vertex 6.15 42 1.36557e-015
      vertex 2 42 -7.6
      vertex 6.15 42 -7.6
    endloop
  endfacet
  facet normal 0 1 -0
    outer loop
      vertex 4.15 49.6 -7.6
      vertex 2 49.6 4.44089e-016
      vertex 4.15 49.6 9.21485e-016
    endloop
  endfacet
  facet normal 0 1 0
    outer loop
      vertex 2 49.6 4.44089e-016
      vertex 4.15 49.6 -7.6
      vertex 2 49.6 -7.6
    endloop
  endfacet
  facet normal 0 -1 0
    outer loop
      vertex 2 48.1 -7.6
      vertex 6.15 48.1 1.36557e-015
      vertex 2 48.1 4.44089e-016
    endloop
  endfacet
  facet normal 0 -1 -0
    outer loop
      vertex 6.15 48.1 1.36557e-015
      vertex 2 48.1 -7.6
      vertex 6.15 48.1 -7.6
    endloop
  endfacet
  facet normal 0 1 -0
    outer loop
      vertex 6.15 47.1 -7.6
      vertex 2 47.1 4.44089e-016
      vertex 6.15 47.1 1.36557e-015
    endloop
  endfacet
  facet normal 0 1 0
    outer loop
      vertex 2 47.1 4.44089e-016
      vertex 6.15 47.1 -7.6
      vertex 2 47.1 -7.6
    endloop
  endfacet
  facet normal -1 0 0
    outer loop
      vertex 4.15 49.6 -7.6
      vertex 4.15 50.35 9.21485e-016
      vertex 4.15 50.35 -7.6
    endloop
  endfacet
  facet normal -1 -0 0
    outer loop
      vertex 4.15 50.35 9.21485e-016
      vertex 4.15 49.6 -7.6
      vertex 4.15 49.6 9.21485e-016
    endloop
  endfacet
  facet normal 0.351123 0.936329 -0
    outer loop
      vertex 6.15 49.6 -7.6
      vertex 4.15 50.35 9.21485e-016
      vertex 6.15 49.6 1.36557e-015
    endloop
  endfacet
  facet normal 0.351123 0.936329 0
    outer loop
      vertex 4.15 50.35 9.21485e-016
      vertex 6.15 49.6 -7.6
      vertex 4.15 50.35 -7.6
    endloop
  endfacet
  facet normal 0 1 -0
    outer loop
      vertex 2 49.6 -7.6
      vertex 0 49.6 0
      vertex 2 49.6 4.44089e-016
    endloop
  endfacet
  facet normal 0 1 0
    outer loop
      vertex 0 49.6 0
      vertex 2 49.6 -7.6
      vertex 1.68754e-015 49.6 -7.6
    endloop
  endfacet
  facet normal -1 0 -2.22045e-016
    outer loop
      vertex 1.68754e-015 0 -7.6
      vertex 0 49.6 0
      vertex 1.68754e-015 49.6 -7.6
    endloop
  endfacet
  facet normal -1 -0 -2.22045e-016
    outer loop
      vertex 0 49.6 0
      vertex 1.68754e-015 0 -7.6
      vertex 0 0 0
    endloop
  endfacet
endsolid OpenSCAD_Model
