solid OpenSCAD_Model
  facet normal 1 -0 0
    outer loop
      vertex 2 2 34
      vertex 2 34 2
      vertex 2 34 34
    endloop
  endfacet
  facet normal 1 0 0
    outer loop
      vertex 2 34 2
      vertex 2 2 34
      vertex 2 2 2
    endloop
  endfacet
  facet normal -0 0 1
    outer loop
      vertex 2 36 34
      vertex 34 34 34
      vertex 34 36 34
    endloop
  endfacet
  facet normal 0 0 1
    outer loop
      vertex 34 34 34
      vertex 2 36 34
      vertex 2 34 34
    endloop
  endfacet
  facet normal -0 0 1
    outer loop
      vertex 2 70 34
      vertex 34 68 34
      vertex 34 70 34
    endloop
  endfacet
  facet normal 0 0 1
    outer loop
      vertex 34 68 34
      vertex 2 70 34
      vertex 2 68 34
    endloop
  endfacet
  facet normal -0 0 1
    outer loop
      vertex 2 104 34
      vertex 34 102 34
      vertex 34 104 34
    endloop
  endfacet
  facet normal 0 0 1
    outer loop
      vertex 2 104 34
      vertex 2 102 34
      vertex 34 102 34
    endloop
  endfacet
  facet normal -0 0 1
    outer loop
      vertex 0 104 34
      vertex 2 102 34
      vertex 2 104 34
    endloop
  endfacet
  facet normal 0 0 1
    outer loop
      vertex 2 102 34
      vertex 0 104 34
      vertex 2 70 34
    endloop
  endfacet
  facet normal 0 0 1
    outer loop
      vertex 2 70 34
      vertex 0 104 34
      vertex 2 68 34
    endloop
  endfacet
  facet normal 0 0 1
    outer loop
      vertex 2 68 34
      vertex 0 104 34
      vertex 2 36 34
    endloop
  endfacet
  facet normal 0 0 1
    outer loop
      vertex 0 0 34
      vertex 2 36 34
      vertex 0 104 34
    endloop
  endfacet
  facet normal 0 0 1
    outer loop
      vertex 2 36 34
      vertex 0 0 34
      vertex 2 34 34
    endloop
  endfacet
  facet normal -0 0 1
    outer loop
      vertex 36 36 34
      vertex 68 34 34
      vertex 68 36 34
    endloop
  endfacet
  facet normal 0 0 1
    outer loop
      vertex 68 34 34
      vertex 36 36 34
      vertex 36 34 34
    endloop
  endfacet
  facet normal -0 0 1
    outer loop
      vertex 36 70 34
      vertex 68 68 34
      vertex 68 70 34
    endloop
  endfacet
  facet normal 0 0 1
    outer loop
      vertex 68 68 34
      vertex 36 70 34
      vertex 36 68 34
    endloop
  endfacet
  facet normal -0 0 1
    outer loop
      vertex 36 104 34
      vertex 68 102 34
      vertex 68 104 34
    endloop
  endfacet
  facet normal 0 0 1
    outer loop
      vertex 36 104 34
      vertex 36 102 34
      vertex 68 102 34
    endloop
  endfacet
  facet normal 0 0 1
    outer loop
      vertex 34 102 34
      vertex 36 102 34
      vertex 36 104 34
    endloop
  endfacet
  facet normal 0 0 1
    outer loop
      vertex 36 102 34
      vertex 34 102 34
      vertex 36 70 34
    endloop
  endfacet
  facet normal 0 0 1
    outer loop
      vertex 36 70 34
      vertex 34 70 34
      vertex 36 68 34
    endloop
  endfacet
  facet normal 0 0 1
    outer loop
      vertex 36 68 34
      vertex 34 68 34
      vertex 36 36 34
    endloop
  endfacet
  facet normal 0 0 1
    outer loop
      vertex 34 36 34
      vertex 36 36 34
      vertex 34 68 34
    endloop
  endfacet
  facet normal 0 0 1
    outer loop
      vertex 34 102 34
      vertex 36 104 34
      vertex 34 104 34
    endloop
  endfacet
  facet normal -0 0 1
    outer loop
      vertex 70 36 34
      vertex 102 34 34
      vertex 102 36 34
    endloop
  endfacet
  facet normal 0 0 1
    outer loop
      vertex 102 34 34
      vertex 70 36 34
      vertex 70 34 34
    endloop
  endfacet
  facet normal -0 0 1
    outer loop
      vertex 70 70 34
      vertex 102 68 34
      vertex 102 70 34
    endloop
  endfacet
  facet normal 0 0 1
    outer loop
      vertex 102 68 34
      vertex 70 70 34
      vertex 70 68 34
    endloop
  endfacet
  facet normal -0 0 1
    outer loop
      vertex 70 104 34
      vertex 102 102 34
      vertex 102 104 34
    endloop
  endfacet
  facet normal 0 0 1
    outer loop
      vertex 70 104 34
      vertex 70 102 34
      vertex 102 102 34
    endloop
  endfacet
  facet normal 0 0 1
    outer loop
      vertex 68 102 34
      vertex 70 102 34
      vertex 70 104 34
    endloop
  endfacet
  facet normal 0 0 1
    outer loop
      vertex 70 102 34
      vertex 68 102 34
      vertex 70 70 34
    endloop
  endfacet
  facet normal 0 0 1
    outer loop
      vertex 70 70 34
      vertex 68 70 34
      vertex 70 68 34
    endloop
  endfacet
  facet normal 0 0 1
    outer loop
      vertex 70 68 34
      vertex 68 68 34
      vertex 70 36 34
    endloop
  endfacet
  facet normal 0 0 1
    outer loop
      vertex 68 36 34
      vertex 70 36 34
      vertex 68 68 34
    endloop
  endfacet
  facet normal 0 0 1
    outer loop
      vertex 68 102 34
      vertex 70 104 34
      vertex 68 104 34
    endloop
  endfacet
  facet normal 0 0 1
    outer loop
      vertex 102 102 34
      vertex 104 102 34
      vertex 104 104 34
    endloop
  endfacet
  facet normal 0 0 1
    outer loop
      vertex 104 102 34
      vertex 102 102 34
      vertex 104 70 34
    endloop
  endfacet
  facet normal 0 0 1
    outer loop
      vertex 104 70 34
      vertex 102 70 34
      vertex 104 68 34
    endloop
  endfacet
  facet normal 0 0 1
    outer loop
      vertex 104 68 34
      vertex 102 68 34
      vertex 104 36 34
    endloop
  endfacet
  facet normal 0 0 1
    outer loop
      vertex 102 36 34
      vertex 104 36 34
      vertex 102 68 34
    endloop
  endfacet
  facet normal 0 0 1
    outer loop
      vertex 104 36 34
      vertex 102 36 34
      vertex 104 34 34
    endloop
  endfacet
  facet normal 0 0 1
    outer loop
      vertex 102 102 34
      vertex 104 104 34
      vertex 102 104 34
    endloop
  endfacet
  facet normal 0 0 1
    outer loop
      vertex 104 70 34
      vertex 102 102 34
      vertex 102 70 34
    endloop
  endfacet
  facet normal 0 0 1
    outer loop
      vertex 104 68 34
      vertex 102 70 34
      vertex 102 68 34
    endloop
  endfacet
  facet normal 0 0 1
    outer loop
      vertex 102 34 34
      vertex 104 34 34
      vertex 102 36 34
    endloop
  endfacet
  facet normal 0 0 1
    outer loop
      vertex 104 34 34
      vertex 102 34 34
      vertex 104 2 34
    endloop
  endfacet
  facet normal 0 0 1
    outer loop
      vertex 102 2 34
      vertex 104 2 34
      vertex 102 34 34
    endloop
  endfacet
  facet normal 0 0 1
    outer loop
      vertex 104 2 34
      vertex 102 2 34
      vertex 104 0 34
    endloop
  endfacet
  facet normal -0 0 1
    outer loop
      vertex 70 2 34
      vertex 104 0 34
      vertex 102 2 34
    endloop
  endfacet
  facet normal 0 0 1
    outer loop
      vertex 70 70 34
      vertex 68 102 34
      vertex 68 70 34
    endloop
  endfacet
  facet normal 0 0 1
    outer loop
      vertex 70 68 34
      vertex 68 70 34
      vertex 68 68 34
    endloop
  endfacet
  facet normal 0 0 1
    outer loop
      vertex 70 36 34
      vertex 68 36 34
      vertex 70 34 34
    endloop
  endfacet
  facet normal 0 0 1
    outer loop
      vertex 68 34 34
      vertex 70 34 34
      vertex 68 36 34
    endloop
  endfacet
  facet normal 0 0 1
    outer loop
      vertex 70 34 34
      vertex 68 34 34
      vertex 70 2 34
    endloop
  endfacet
  facet normal 0 0 1
    outer loop
      vertex 68 2 34
      vertex 70 2 34
      vertex 68 34 34
    endloop
  endfacet
  facet normal -0 0 1
    outer loop
      vertex 68 2 34
      vertex 104 0 34
      vertex 70 2 34
    endloop
  endfacet
  facet normal -0 0 1
    outer loop
      vertex 36 2 34
      vertex 104 0 34
      vertex 68 2 34
    endloop
  endfacet
  facet normal 0 0 1
    outer loop
      vertex 36 70 34
      vertex 34 102 34
      vertex 34 70 34
    endloop
  endfacet
  facet normal 0 0 1
    outer loop
      vertex 36 68 34
      vertex 34 70 34
      vertex 34 68 34
    endloop
  endfacet
  facet normal 0 0 1
    outer loop
      vertex 36 36 34
      vertex 34 36 34
      vertex 36 34 34
    endloop
  endfacet
  facet normal 0 0 1
    outer loop
      vertex 34 34 34
      vertex 36 34 34
      vertex 34 36 34
    endloop
  endfacet
  facet normal 0 0 1
    outer loop
      vertex 36 34 34
      vertex 34 34 34
      vertex 36 2 34
    endloop
  endfacet
  facet normal 0 0 1
    outer loop
      vertex 34 2 34
      vertex 36 2 34
      vertex 34 34 34
    endloop
  endfacet
  facet normal 0 0 1
    outer loop
      vertex 0 0 34
      vertex 36 2 34
      vertex 34 2 34
    endloop
  endfacet
  facet normal 0 0 1
    outer loop
      vertex 0 0 34
      vertex 34 2 34
      vertex 2 2 34
    endloop
  endfacet
  facet normal 0 0 1
    outer loop
      vertex 36 2 34
      vertex 0 0 34
      vertex 104 0 34
    endloop
  endfacet
  facet normal 0 0 1
    outer loop
      vertex 2 34 34
      vertex 0 0 34
      vertex 2 2 34
    endloop
  endfacet
  facet normal -1 0 0
    outer loop
      vertex 34 2 2
      vertex 34 34 34
      vertex 34 34 2
    endloop
  endfacet
  facet normal -1 -0 0
    outer loop
      vertex 34 34 34
      vertex 34 2 2
      vertex 34 2 34
    endloop
  endfacet
  facet normal 0 -1 0
    outer loop
      vertex 23.5 34 4
      vertex 2 34 34
      vertex 10.5 34 4
    endloop
  endfacet
  facet normal 0 -1 0
    outer loop
      vertex 2 34 2
      vertex 10.5 34 4
      vertex 2 34 34
    endloop
  endfacet
  facet normal 0 -1 -0
    outer loop
      vertex 10.5 34 4
      vertex 2 34 2
      vertex 10.5 34 2
    endloop
  endfacet
  facet normal 0 -1 0
    outer loop
      vertex 2 34 34
      vertex 23.5 34 4
      vertex 34 34 34
    endloop
  endfacet
  facet normal 0 -1 0
    outer loop
      vertex 34 34 2
      vertex 23.5 34 4
      vertex 23.5 34 2
    endloop
  endfacet
  facet normal 0 -1 0
    outer loop
      vertex 23.5 34 4
      vertex 34 34 2
      vertex 34 34 34
    endloop
  endfacet
  facet normal -0 0 1
    outer loop
      vertex 2 34 2
      vertex 10.5 2 2
      vertex 10.5 34 2
    endloop
  endfacet
  facet normal 0 0 1
    outer loop
      vertex 10.5 2 2
      vertex 2 34 2
      vertex 2 2 2
    endloop
  endfacet
  facet normal -0 0 1
    outer loop
      vertex 23.5 34 2
      vertex 34 2 2
      vertex 34 34 2
    endloop
  endfacet
  facet normal 0 0 1
    outer loop
      vertex 34 2 2
      vertex 23.5 34 2
      vertex 23.5 2 2
    endloop
  endfacet
  facet normal 0 1 0
    outer loop
      vertex 34 2 34
      vertex 23.5 2 4
      vertex 2 2 34
    endloop
  endfacet
  facet normal 0 1 -0
    outer loop
      vertex 34 2 2
      vertex 23.5 2 4
      vertex 34 2 34
    endloop
  endfacet
  facet normal 0 1 0
    outer loop
      vertex 23.5 2 4
      vertex 34 2 2
      vertex 23.5 2 2
    endloop
  endfacet
  facet normal 0 1 -0
    outer loop
      vertex 10.5 2 4
      vertex 2 2 34
      vertex 23.5 2 4
    endloop
  endfacet
  facet normal 0 1 0
    outer loop
      vertex 2 2 2
      vertex 10.5 2 4
      vertex 10.5 2 2
    endloop
  endfacet
  facet normal 0 1 0
    outer loop
      vertex 10.5 2 4
      vertex 2 2 2
      vertex 2 2 34
    endloop
  endfacet
  facet normal 1 -0 0
    outer loop
      vertex 2 36 34
      vertex 2 68 2
      vertex 2 68 34
    endloop
  endfacet
  facet normal 1 0 0
    outer loop
      vertex 2 68 2
      vertex 2 36 34
      vertex 2 36 2
    endloop
  endfacet
  facet normal -1 0 0
    outer loop
      vertex 34 36 2
      vertex 34 68 34
      vertex 34 68 2
    endloop
  endfacet
  facet normal -1 -0 0
    outer loop
      vertex 34 68 34
      vertex 34 36 2
      vertex 34 36 34
    endloop
  endfacet
  facet normal 0 -1 0
    outer loop
      vertex 23.5 68 4
      vertex 2 68 34
      vertex 10.5 68 4
    endloop
  endfacet
  facet normal 0 -1 0
    outer loop
      vertex 2 68 2
      vertex 10.5 68 4
      vertex 2 68 34
    endloop
  endfacet
  facet normal 0 -1 -0
    outer loop
      vertex 10.5 68 4
      vertex 2 68 2
      vertex 10.5 68 2
    endloop
  endfacet
  facet normal 0 -1 0
    outer loop
      vertex 2 68 34
      vertex 23.5 68 4
      vertex 34 68 34
    endloop
  endfacet
  facet normal 0 -1 0
    outer loop
      vertex 34 68 2
      vertex 23.5 68 4
      vertex 23.5 68 2
    endloop
  endfacet
  facet normal 0 -1 0
    outer loop
      vertex 23.5 68 4
      vertex 34 68 2
      vertex 34 68 34
    endloop
  endfacet
  facet normal -0 0 1
    outer loop
      vertex 2 68 2
      vertex 10.5 36 2
      vertex 10.5 68 2
    endloop
  endfacet
  facet normal 0 0 1
    outer loop
      vertex 10.5 36 2
      vertex 2 68 2
      vertex 2 36 2
    endloop
  endfacet
  facet normal -0 0 1
    outer loop
      vertex 23.5 68 2
      vertex 34 36 2
      vertex 34 68 2
    endloop
  endfacet
  facet normal 0 0 1
    outer loop
      vertex 34 36 2
      vertex 23.5 68 2
      vertex 23.5 36 2
    endloop
  endfacet
  facet normal 0 1 0
    outer loop
      vertex 34 36 34
      vertex 23.5 36 4
      vertex 2 36 34
    endloop
  endfacet
  facet normal 0 1 -0
    outer loop
      vertex 34 36 2
      vertex 23.5 36 4
      vertex 34 36 34
    endloop
  endfacet
  facet normal 0 1 0
    outer loop
      vertex 23.5 36 4
      vertex 34 36 2
      vertex 23.5 36 2
    endloop
  endfacet
  facet normal 0 1 -0
    outer loop
      vertex 10.5 36 4
      vertex 2 36 34
      vertex 23.5 36 4
    endloop
  endfacet
  facet normal 0 1 0
    outer loop
      vertex 2 36 2
      vertex 10.5 36 4
      vertex 10.5 36 2
    endloop
  endfacet
  facet normal 0 1 0
    outer loop
      vertex 10.5 36 4
      vertex 2 36 2
      vertex 2 36 34
    endloop
  endfacet
  facet normal 1 -0 0
    outer loop
      vertex 2 70 34
      vertex 2 102 2
      vertex 2 102 34
    endloop
  endfacet
  facet normal 1 0 0
    outer loop
      vertex 2 102 2
      vertex 2 70 34
      vertex 2 70 2
    endloop
  endfacet
  facet normal -1 0 0
    outer loop
      vertex 34 70 2
      vertex 34 102 34
      vertex 34 102 2
    endloop
  endfacet
  facet normal -1 -0 0
    outer loop
      vertex 34 102 34
      vertex 34 70 2
      vertex 34 70 34
    endloop
  endfacet
  facet normal 0 -1 0
    outer loop
      vertex 23.5 102 4
      vertex 2 102 34
      vertex 10.5 102 4
    endloop
  endfacet
  facet normal 0 -1 0
    outer loop
      vertex 2 102 2
      vertex 10.5 102 4
      vertex 2 102 34
    endloop
  endfacet
  facet normal 0 -1 -0
    outer loop
      vertex 10.5 102 4
      vertex 2 102 2
      vertex 10.5 102 2
    endloop
  endfacet
  facet normal 0 -1 0
    outer loop
      vertex 2 102 34
      vertex 23.5 102 4
      vertex 34 102 34
    endloop
  endfacet
  facet normal 0 -1 0
    outer loop
      vertex 34 102 2
      vertex 23.5 102 4
      vertex 23.5 102 2
    endloop
  endfacet
  facet normal 0 -1 0
    outer loop
      vertex 23.5 102 4
      vertex 34 102 2
      vertex 34 102 34
    endloop
  endfacet
  facet normal -0 0 1
    outer loop
      vertex 2 102 2
      vertex 10.5 70 2
      vertex 10.5 102 2
    endloop
  endfacet
  facet normal 0 0 1
    outer loop
      vertex 10.5 70 2
      vertex 2 102 2
      vertex 2 70 2
    endloop
  endfacet
  facet normal -0 0 1
    outer loop
      vertex 23.5 102 2
      vertex 34 70 2
      vertex 34 102 2
    endloop
  endfacet
  facet normal 0 0 1
    outer loop
      vertex 34 70 2
      vertex 23.5 102 2
      vertex 23.5 70 2
    endloop
  endfacet
  facet normal 0 1 0
    outer loop
      vertex 34 70 34
      vertex 23.5 70 4
      vertex 2 70 34
    endloop
  endfacet
  facet normal 0 1 -0
    outer loop
      vertex 34 70 2
      vertex 23.5 70 4
      vertex 34 70 34
    endloop
  endfacet
  facet normal 0 1 0
    outer loop
      vertex 23.5 70 4
      vertex 34 70 2
      vertex 23.5 70 2
    endloop
  endfacet
  facet normal 0 1 -0
    outer loop
      vertex 10.5 70 4
      vertex 2 70 34
      vertex 23.5 70 4
    endloop
  endfacet
  facet normal 0 1 0
    outer loop
      vertex 2 70 2
      vertex 10.5 70 4
      vertex 10.5 70 2
    endloop
  endfacet
  facet normal 0 1 0
    outer loop
      vertex 10.5 70 4
      vertex 2 70 2
      vertex 2 70 34
    endloop
  endfacet
  facet normal 0 1 -0
    outer loop
      vertex 104 104 2
      vertex 102 104 34
      vertex 104 104 34
    endloop
  endfacet
  facet normal 0 1 0
    outer loop
      vertex 104 104 2
      vertex 102 104 2
      vertex 102 104 34
    endloop
  endfacet
  facet normal 0 1 -0
    outer loop
      vertex 104 104 0
      vertex 102 104 2
      vertex 104 104 2
    endloop
  endfacet
  facet normal 0 1 0
    outer loop
      vertex 91.5 104 0
      vertex 102 104 2
      vertex 104 104 0
    endloop
  endfacet
  facet normal 0 1 0
    outer loop
      vertex 102 104 2
      vertex 91.5 104 0
      vertex 91.5 104 2
    endloop
  endfacet
  facet normal 0 1 0
    outer loop
      vertex 10.5 104 2
      vertex 10.5 104 0
      vertex 2 104 2
    endloop
  endfacet
  facet normal 0 1 -0
    outer loop
      vertex 2 104 2
      vertex 0 104 34
      vertex 2 104 34
    endloop
  endfacet
  facet normal 0 1 0
    outer loop
      vertex 2 104 2
      vertex 0 104 0
      vertex 0 104 34
    endloop
  endfacet
  facet normal 0 1 0
    outer loop
      vertex 0 104 0
      vertex 2 104 2
      vertex 10.5 104 0
    endloop
  endfacet
  facet normal 0 1 0
    outer loop
      vertex 102 104 34
      vertex 91.5 104 4
      vertex 70 104 34
    endloop
  endfacet
  facet normal 0 1 -0
    outer loop
      vertex 102 104 2
      vertex 91.5 104 4
      vertex 102 104 34
    endloop
  endfacet
  facet normal 0 1 0
    outer loop
      vertex 91.5 104 4
      vertex 102 104 2
      vertex 91.5 104 2
    endloop
  endfacet
  facet normal 0 1 -0
    outer loop
      vertex 78.5 104 4
      vertex 70 104 34
      vertex 91.5 104 4
    endloop
  endfacet
  facet normal 0 1 0
    outer loop
      vertex 70 104 2
      vertex 78.5 104 4
      vertex 78.5 104 2
    endloop
  endfacet
  facet normal 0 1 0
    outer loop
      vertex 78.5 104 4
      vertex 70 104 2
      vertex 70 104 34
    endloop
  endfacet
  facet normal 0 1 -0
    outer loop
      vertex 78.5 104 0
      vertex 70 104 2
      vertex 78.5 104 2
    endloop
  endfacet
  facet normal 0 1 0
    outer loop
      vertex 70 104 2
      vertex 78.5 104 0
      vertex 68 104 2
    endloop
  endfacet
  facet normal 0 1 0
    outer loop
      vertex 57.5 104 0
      vertex 68 104 2
      vertex 78.5 104 0
    endloop
  endfacet
  facet normal 0 1 0
    outer loop
      vertex 68 104 2
      vertex 57.5 104 0
      vertex 57.5 104 2
    endloop
  endfacet
  facet normal 0 1 -0
    outer loop
      vertex 70 104 2
      vertex 68 104 34
      vertex 70 104 34
    endloop
  endfacet
  facet normal 0 1 0
    outer loop
      vertex 68 104 34
      vertex 70 104 2
      vertex 68 104 2
    endloop
  endfacet
  facet normal 0 1 0
    outer loop
      vertex 68 104 34
      vertex 57.5 104 4
      vertex 36 104 34
    endloop
  endfacet
  facet normal 0 1 -0
    outer loop
      vertex 68 104 2
      vertex 57.5 104 4
      vertex 68 104 34
    endloop
  endfacet
  facet normal 0 1 0
    outer loop
      vertex 57.5 104 4
      vertex 68 104 2
      vertex 57.5 104 2
    endloop
  endfacet
  facet normal 0 1 -0
    outer loop
      vertex 44.5 104 4
      vertex 36 104 34
      vertex 57.5 104 4
    endloop
  endfacet
  facet normal 0 1 0
    outer loop
      vertex 36 104 2
      vertex 44.5 104 4
      vertex 44.5 104 2
    endloop
  endfacet
  facet normal 0 1 0
    outer loop
      vertex 44.5 104 4
      vertex 36 104 2
      vertex 36 104 34
    endloop
  endfacet
  facet normal 0 1 -0
    outer loop
      vertex 44.5 104 0
      vertex 36 104 2
      vertex 44.5 104 2
    endloop
  endfacet
  facet normal 0 1 0
    outer loop
      vertex 36 104 2
      vertex 44.5 104 0
      vertex 34 104 2
    endloop
  endfacet
  facet normal 0 1 0
    outer loop
      vertex 23.5 104 0
      vertex 34 104 2
      vertex 44.5 104 0
    endloop
  endfacet
  facet normal 0 1 0
    outer loop
      vertex 34 104 2
      vertex 23.5 104 0
      vertex 23.5 104 2
    endloop
  endfacet
  facet normal 0 1 -0
    outer loop
      vertex 36 104 2
      vertex 34 104 34
      vertex 36 104 34
    endloop
  endfacet
  facet normal 0 1 0
    outer loop
      vertex 34 104 34
      vertex 36 104 2
      vertex 34 104 2
    endloop
  endfacet
  facet normal 0 1 0
    outer loop
      vertex 34 104 34
      vertex 23.5 104 4
      vertex 2 104 34
    endloop
  endfacet
  facet normal 0 1 -0
    outer loop
      vertex 34 104 2
      vertex 23.5 104 4
      vertex 34 104 34
    endloop
  endfacet
  facet normal 0 1 0
    outer loop
      vertex 23.5 104 4
      vertex 34 104 2
      vertex 23.5 104 2
    endloop
  endfacet
  facet normal 0 1 -0
    outer loop
      vertex 10.5 104 4
      vertex 2 104 34
      vertex 23.5 104 4
    endloop
  endfacet
  facet normal 0 1 0
    outer loop
      vertex 2 104 2
      vertex 10.5 104 4
      vertex 10.5 104 2
    endloop
  endfacet
  facet normal 0 1 0
    outer loop
      vertex 10.5 104 4
      vertex 2 104 2
      vertex 2 104 34
    endloop
  endfacet
  facet normal 1 -0 0
    outer loop
      vertex 36 2 34
      vertex 36 34 2
      vertex 36 34 34
    endloop
  endfacet
  facet normal 1 0 0
    outer loop
      vertex 36 34 2
      vertex 36 2 34
      vertex 36 2 2
    endloop
  endfacet
  facet normal -1 0 0
    outer loop
      vertex 68 2 2
      vertex 68 34 34
      vertex 68 34 2
    endloop
  endfacet
  facet normal -1 -0 0
    outer loop
      vertex 68 34 34
      vertex 68 2 2
      vertex 68 2 34
    endloop
  endfacet
  facet normal 0 -1 0
    outer loop
      vertex 57.5 34 4
      vertex 36 34 34
      vertex 44.5 34 4
    endloop
  endfacet
  facet normal 0 -1 0
    outer loop
      vertex 36 34 2
      vertex 44.5 34 4
      vertex 36 34 34
    endloop
  endfacet
  facet normal 0 -1 -0
    outer loop
      vertex 44.5 34 4
      vertex 36 34 2
      vertex 44.5 34 2
    endloop
  endfacet
  facet normal 0 -1 0
    outer loop
      vertex 36 34 34
      vertex 57.5 34 4
      vertex 68 34 34
    endloop
  endfacet
  facet normal 0 -1 0
    outer loop
      vertex 68 34 2
      vertex 57.5 34 4
      vertex 57.5 34 2
    endloop
  endfacet
  facet normal 0 -1 0
    outer loop
      vertex 57.5 34 4
      vertex 68 34 2
      vertex 68 34 34
    endloop
  endfacet
  facet normal -0 0 1
    outer loop
      vertex 36 34 2
      vertex 44.5 2 2
      vertex 44.5 34 2
    endloop
  endfacet
  facet normal 0 0 1
    outer loop
      vertex 44.5 2 2
      vertex 36 34 2
      vertex 36 2 2
    endloop
  endfacet
  facet normal -0 0 1
    outer loop
      vertex 57.5 34 2
      vertex 68 2 2
      vertex 68 34 2
    endloop
  endfacet
  facet normal 0 0 1
    outer loop
      vertex 68 2 2
      vertex 57.5 34 2
      vertex 57.5 2 2
    endloop
  endfacet
  facet normal 0 1 0
    outer loop
      vertex 68 2 34
      vertex 57.5 2 4
      vertex 36 2 34
    endloop
  endfacet
  facet normal 0 1 -0
    outer loop
      vertex 68 2 2
      vertex 57.5 2 4
      vertex 68 2 34
    endloop
  endfacet
  facet normal 0 1 0
    outer loop
      vertex 57.5 2 4
      vertex 68 2 2
      vertex 57.5 2 2
    endloop
  endfacet
  facet normal 0 1 -0
    outer loop
      vertex 44.5 2 4
      vertex 36 2 34
      vertex 57.5 2 4
    endloop
  endfacet
  facet normal 0 1 0
    outer loop
      vertex 36 2 2
      vertex 44.5 2 4
      vertex 44.5 2 2
    endloop
  endfacet
  facet normal 0 1 0
    outer loop
      vertex 44.5 2 4
      vertex 36 2 2
      vertex 36 2 34
    endloop
  endfacet
  facet normal 1 -0 0
    outer loop
      vertex 36 36 34
      vertex 36 68 2
      vertex 36 68 34
    endloop
  endfacet
  facet normal 1 0 0
    outer loop
      vertex 36 68 2
      vertex 36 36 34
      vertex 36 36 2
    endloop
  endfacet
  facet normal -1 0 0
    outer loop
      vertex 68 36 2
      vertex 68 68 34
      vertex 68 68 2
    endloop
  endfacet
  facet normal -1 -0 0
    outer loop
      vertex 68 68 34
      vertex 68 36 2
      vertex 68 36 34
    endloop
  endfacet
  facet normal 0 -1 0
    outer loop
      vertex 57.5 68 4
      vertex 36 68 34
      vertex 44.5 68 4
    endloop
  endfacet
  facet normal 0 -1 0
    outer loop
      vertex 36 68 2
      vertex 44.5 68 4
      vertex 36 68 34
    endloop
  endfacet
  facet normal 0 -1 -0
    outer loop
      vertex 44.5 68 4
      vertex 36 68 2
      vertex 44.5 68 2
    endloop
  endfacet
  facet normal 0 -1 0
    outer loop
      vertex 36 68 34
      vertex 57.5 68 4
      vertex 68 68 34
    endloop
  endfacet
  facet normal 0 -1 0
    outer loop
      vertex 68 68 2
      vertex 57.5 68 4
      vertex 57.5 68 2
    endloop
  endfacet
  facet normal 0 -1 0
    outer loop
      vertex 57.5 68 4
      vertex 68 68 2
      vertex 68 68 34
    endloop
  endfacet
  facet normal -0 0 1
    outer loop
      vertex 36 68 2
      vertex 44.5 36 2
      vertex 44.5 68 2
    endloop
  endfacet
  facet normal 0 0 1
    outer loop
      vertex 44.5 36 2
      vertex 36 68 2
      vertex 36 36 2
    endloop
  endfacet
  facet normal -0 0 1
    outer loop
      vertex 57.5 68 2
      vertex 68 36 2
      vertex 68 68 2
    endloop
  endfacet
  facet normal 0 0 1
    outer loop
      vertex 68 36 2
      vertex 57.5 68 2
      vertex 57.5 36 2
    endloop
  endfacet
  facet normal 0 1 0
    outer loop
      vertex 68 36 34
      vertex 57.5 36 4
      vertex 36 36 34
    endloop
  endfacet
  facet normal 0 1 -0
    outer loop
      vertex 68 36 2
      vertex 57.5 36 4
      vertex 68 36 34
    endloop
  endfacet
  facet normal 0 1 0
    outer loop
      vertex 57.5 36 4
      vertex 68 36 2
      vertex 57.5 36 2
    endloop
  endfacet
  facet normal 0 1 -0
    outer loop
      vertex 44.5 36 4
      vertex 36 36 34
      vertex 57.5 36 4
    endloop
  endfacet
  facet normal 0 1 0
    outer loop
      vertex 36 36 2
      vertex 44.5 36 4
      vertex 44.5 36 2
    endloop
  endfacet
  facet normal 0 1 0
    outer loop
      vertex 44.5 36 4
      vertex 36 36 2
      vertex 36 36 34
    endloop
  endfacet
  facet normal 1 -0 0
    outer loop
      vertex 36 70 34
      vertex 36 102 2
      vertex 36 102 34
    endloop
  endfacet
  facet normal 1 0 0
    outer loop
      vertex 36 102 2
      vertex 36 70 34
      vertex 36 70 2
    endloop
  endfacet
  facet normal -1 0 0
    outer loop
      vertex 68 70 2
      vertex 68 102 34
      vertex 68 102 2
    endloop
  endfacet
  facet normal -1 -0 0
    outer loop
      vertex 68 102 34
      vertex 68 70 2
      vertex 68 70 34
    endloop
  endfacet
  facet normal -0 0 1
    outer loop
      vertex 36 102 2
      vertex 44.5 70 2
      vertex 44.5 102 2
    endloop
  endfacet
  facet normal 0 0 1
    outer loop
      vertex 44.5 70 2
      vertex 36 102 2
      vertex 36 70 2
    endloop
  endfacet
  facet normal -0 0 1
    outer loop
      vertex 57.5 102 2
      vertex 68 70 2
      vertex 68 102 2
    endloop
  endfacet
  facet normal 0 0 1
    outer loop
      vertex 68 70 2
      vertex 57.5 102 2
      vertex 57.5 70 2
    endloop
  endfacet
  facet normal 0 1 0
    outer loop
      vertex 68 70 34
      vertex 57.5 70 4
      vertex 36 70 34
    endloop
  endfacet
  facet normal 0 1 -0
    outer loop
      vertex 68 70 2
      vertex 57.5 70 4
      vertex 68 70 34
    endloop
  endfacet
  facet normal 0 1 0
    outer loop
      vertex 57.5 70 4
      vertex 68 70 2
      vertex 57.5 70 2
    endloop
  endfacet
  facet normal 0 1 -0
    outer loop
      vertex 44.5 70 4
      vertex 36 70 34
      vertex 57.5 70 4
    endloop
  endfacet
  facet normal 0 1 0
    outer loop
      vertex 36 70 2
      vertex 44.5 70 4
      vertex 44.5 70 2
    endloop
  endfacet
  facet normal 0 1 0
    outer loop
      vertex 44.5 70 4
      vertex 36 70 2
      vertex 36 70 34
    endloop
  endfacet
  facet normal 0 -1 0
    outer loop
      vertex 57.5 102 4
      vertex 36 102 34
      vertex 44.5 102 4
    endloop
  endfacet
  facet normal 0 -1 0
    outer loop
      vertex 36 102 2
      vertex 44.5 102 4
      vertex 36 102 34
    endloop
  endfacet
  facet normal 0 -1 -0
    outer loop
      vertex 44.5 102 4
      vertex 36 102 2
      vertex 44.5 102 2
    endloop
  endfacet
  facet normal 0 -1 0
    outer loop
      vertex 36 102 34
      vertex 57.5 102 4
      vertex 68 102 34
    endloop
  endfacet
  facet normal 0 -1 0
    outer loop
      vertex 68 102 2
      vertex 57.5 102 4
      vertex 57.5 102 2
    endloop
  endfacet
  facet normal 0 -1 0
    outer loop
      vertex 57.5 102 4
      vertex 68 102 2
      vertex 68 102 34
    endloop
  endfacet
  facet normal 1 -0 0
    outer loop
      vertex 70 2 34
      vertex 70 34 2
      vertex 70 34 34
    endloop
  endfacet
  facet normal 1 0 0
    outer loop
      vertex 70 34 2
      vertex 70 2 34
      vertex 70 2 2
    endloop
  endfacet
  facet normal -1 0 0
    outer loop
      vertex 102 2 2
      vertex 102 34 34
      vertex 102 34 2
    endloop
  endfacet
  facet normal -1 -0 0
    outer loop
      vertex 102 34 34
      vertex 102 2 2
      vertex 102 2 34
    endloop
  endfacet
  facet normal 0 -1 0
    outer loop
      vertex 91.5 34 4
      vertex 70 34 34
      vertex 78.5 34 4
    endloop
  endfacet
  facet normal 0 -1 0
    outer loop
      vertex 70 34 2
      vertex 78.5 34 4
      vertex 70 34 34
    endloop
  endfacet
  facet normal 0 -1 -0
    outer loop
      vertex 78.5 34 4
      vertex 70 34 2
      vertex 78.5 34 2
    endloop
  endfacet
  facet normal 0 -1 0
    outer loop
      vertex 70 34 34
      vertex 91.5 34 4
      vertex 102 34 34
    endloop
  endfacet
  facet normal 0 -1 0
    outer loop
      vertex 102 34 2
      vertex 91.5 34 4
      vertex 91.5 34 2
    endloop
  endfacet
  facet normal 0 -1 0
    outer loop
      vertex 91.5 34 4
      vertex 102 34 2
      vertex 102 34 34
    endloop
  endfacet
  facet normal -0 0 1
    outer loop
      vertex 70 34 2
      vertex 78.5 2 2
      vertex 78.5 34 2
    endloop
  endfacet
  facet normal 0 0 1
    outer loop
      vertex 78.5 2 2
      vertex 70 34 2
      vertex 70 2 2
    endloop
  endfacet
  facet normal -0 0 1
    outer loop
      vertex 91.5 34 2
      vertex 102 2 2
      vertex 102 34 2
    endloop
  endfacet
  facet normal 0 0 1
    outer loop
      vertex 102 2 2
      vertex 91.5 34 2
      vertex 91.5 2 2
    endloop
  endfacet
  facet normal 0 1 0
    outer loop
      vertex 102 2 34
      vertex 91.5 2 4
      vertex 70 2 34
    endloop
  endfacet
  facet normal 0 1 -0
    outer loop
      vertex 102 2 2
      vertex 91.5 2 4
      vertex 102 2 34
    endloop
  endfacet
  facet normal 0 1 0
    outer loop
      vertex 91.5 2 4
      vertex 102 2 2
      vertex 91.5 2 2
    endloop
  endfacet
  facet normal 0 1 -0
    outer loop
      vertex 78.5 2 4
      vertex 70 2 34
      vertex 91.5 2 4
    endloop
  endfacet
  facet normal 0 1 0
    outer loop
      vertex 70 2 2
      vertex 78.5 2 4
      vertex 78.5 2 2
    endloop
  endfacet
  facet normal 0 1 0
    outer loop
      vertex 78.5 2 4
      vertex 70 2 2
      vertex 70 2 34
    endloop
  endfacet
  facet normal 1 -0 0
    outer loop
      vertex 70 36 34
      vertex 70 68 2
      vertex 70 68 34
    endloop
  endfacet
  facet normal 1 0 0
    outer loop
      vertex 70 68 2
      vertex 70 36 34
      vertex 70 36 2
    endloop
  endfacet
  facet normal -1 0 0
    outer loop
      vertex 102 36 2
      vertex 102 68 34
      vertex 102 68 2
    endloop
  endfacet
  facet normal -1 -0 0
    outer loop
      vertex 102 68 34
      vertex 102 36 2
      vertex 102 36 34
    endloop
  endfacet
  facet normal -0 0 1
    outer loop
      vertex 70 68 2
      vertex 78.5 36 2
      vertex 78.5 68 2
    endloop
  endfacet
  facet normal 0 0 1
    outer loop
      vertex 78.5 36 2
      vertex 70 68 2
      vertex 70 36 2
    endloop
  endfacet
  facet normal -0 0 1
    outer loop
      vertex 91.5 68 2
      vertex 102 36 2
      vertex 102 68 2
    endloop
  endfacet
  facet normal 0 0 1
    outer loop
      vertex 102 36 2
      vertex 91.5 68 2
      vertex 91.5 36 2
    endloop
  endfacet
  facet normal 0 1 0
    outer loop
      vertex 102 36 34
      vertex 91.5 36 4
      vertex 70 36 34
    endloop
  endfacet
  facet normal 0 1 -0
    outer loop
      vertex 102 36 2
      vertex 91.5 36 4
      vertex 102 36 34
    endloop
  endfacet
  facet normal 0 1 0
    outer loop
      vertex 91.5 36 4
      vertex 102 36 2
      vertex 91.5 36 2
    endloop
  endfacet
  facet normal 0 1 -0
    outer loop
      vertex 78.5 36 4
      vertex 70 36 34
      vertex 91.5 36 4
    endloop
  endfacet
  facet normal 0 1 0
    outer loop
      vertex 70 36 2
      vertex 78.5 36 4
      vertex 78.5 36 2
    endloop
  endfacet
  facet normal 0 1 0
    outer loop
      vertex 78.5 36 4
      vertex 70 36 2
      vertex 70 36 34
    endloop
  endfacet
  facet normal 0 -1 0
    outer loop
      vertex 91.5 68 4
      vertex 70 68 34
      vertex 78.5 68 4
    endloop
  endfacet
  facet normal 0 -1 0
    outer loop
      vertex 70 68 2
      vertex 78.5 68 4
      vertex 70 68 34
    endloop
  endfacet
  facet normal 0 -1 -0
    outer loop
      vertex 78.5 68 4
      vertex 70 68 2
      vertex 78.5 68 2
    endloop
  endfacet
  facet normal 0 -1 0
    outer loop
      vertex 70 68 34
      vertex 91.5 68 4
      vertex 102 68 34
    endloop
  endfacet
  facet normal 0 -1 0
    outer loop
      vertex 102 68 2
      vertex 91.5 68 4
      vertex 91.5 68 2
    endloop
  endfacet
  facet normal 0 -1 0
    outer loop
      vertex 91.5 68 4
      vertex 102 68 2
      vertex 102 68 34
    endloop
  endfacet
  facet normal 1 -0 0
    outer loop
      vertex 70 70 34
      vertex 70 102 2
      vertex 70 102 34
    endloop
  endfacet
  facet normal 1 0 0
    outer loop
      vertex 70 102 2
      vertex 70 70 34
      vertex 70 70 2
    endloop
  endfacet
  facet normal -1 0 0
    outer loop
      vertex 102 70 2
      vertex 102 102 34
      vertex 102 102 2
    endloop
  endfacet
  facet normal -1 -0 0
    outer loop
      vertex 102 102 34
      vertex 102 70 2
      vertex 102 70 34
    endloop
  endfacet
  facet normal 0 -1 0
    outer loop
      vertex 91.5 102 4
      vertex 70 102 34
      vertex 78.5 102 4
    endloop
  endfacet
  facet normal 0 -1 0
    outer loop
      vertex 70 102 2
      vertex 78.5 102 4
      vertex 70 102 34
    endloop
  endfacet
  facet normal 0 -1 -0
    outer loop
      vertex 78.5 102 4
      vertex 70 102 2
      vertex 78.5 102 2
    endloop
  endfacet
  facet normal 0 -1 0
    outer loop
      vertex 70 102 34
      vertex 91.5 102 4
      vertex 102 102 34
    endloop
  endfacet
  facet normal 0 -1 0
    outer loop
      vertex 102 102 2
      vertex 91.5 102 4
      vertex 91.5 102 2
    endloop
  endfacet
  facet normal 0 -1 0
    outer loop
      vertex 91.5 102 4
      vertex 102 102 2
      vertex 102 102 34
    endloop
  endfacet
  facet normal -0 0 1
    outer loop
      vertex 70 102 2
      vertex 78.5 70 2
      vertex 78.5 102 2
    endloop
  endfacet
  facet normal 0 0 1
    outer loop
      vertex 78.5 70 2
      vertex 70 102 2
      vertex 70 70 2
    endloop
  endfacet
  facet normal -0 0 1
    outer loop
      vertex 91.5 102 2
      vertex 102 70 2
      vertex 102 102 2
    endloop
  endfacet
  facet normal 0 0 1
    outer loop
      vertex 102 70 2
      vertex 91.5 102 2
      vertex 91.5 70 2
    endloop
  endfacet
  facet normal 0 1 0
    outer loop
      vertex 102 70 34
      vertex 91.5 70 4
      vertex 70 70 34
    endloop
  endfacet
  facet normal 0 1 -0
    outer loop
      vertex 102 70 2
      vertex 91.5 70 4
      vertex 102 70 34
    endloop
  endfacet
  facet normal 0 1 0
    outer loop
      vertex 91.5 70 4
      vertex 102 70 2
      vertex 91.5 70 2
    endloop
  endfacet
  facet normal 0 1 -0
    outer loop
      vertex 78.5 70 4
      vertex 70 70 34
      vertex 91.5 70 4
    endloop
  endfacet
  facet normal 0 1 0
    outer loop
      vertex 70 70 2
      vertex 78.5 70 4
      vertex 78.5 70 2
    endloop
  endfacet
  facet normal 0 1 0
    outer loop
      vertex 78.5 70 4
      vertex 70 70 2
      vertex 70 70 34
    endloop
  endfacet
  facet normal 1 0 0
    outer loop
      vertex 104 2 34
      vertex 104 0 34
      vertex 104 2 2
    endloop
  endfacet
  facet normal 1 0 0
    outer loop
      vertex 104 36 34
      vertex 104 34 34
      vertex 104 36 2
    endloop
  endfacet
  facet normal 1 0 0
    outer loop
      vertex 104 70 34
      vertex 104 68 34
      vertex 104 70 2
    endloop
  endfacet
  facet normal 1 0 0
    outer loop
      vertex 104 102 2
      vertex 104 104 2
      vertex 104 104 34
    endloop
  endfacet
  facet normal 1 0 0
    outer loop
      vertex 104 102 2
      vertex 104 104 34
      vertex 104 102 34
    endloop
  endfacet
  facet normal 1 0 0
    outer loop
      vertex 104 104 2
      vertex 104 102 2
      vertex 104 104 0
    endloop
  endfacet
  facet normal 1 -0 0
    outer loop
      vertex 104 70 2
      vertex 104 104 0
      vertex 104 102 2
    endloop
  endfacet
  facet normal 1 0 0
    outer loop
      vertex 104 68 2
      vertex 104 70 2
      vertex 104 68 34
    endloop
  endfacet
  facet normal 1 -0 0
    outer loop
      vertex 104 68 2
      vertex 104 104 0
      vertex 104 70 2
    endloop
  endfacet
  facet normal 1 -0 0
    outer loop
      vertex 104 36 2
      vertex 104 104 0
      vertex 104 68 2
    endloop
  endfacet
  facet normal 1 0 0
    outer loop
      vertex 104 34 2
      vertex 104 36 2
      vertex 104 34 34
    endloop
  endfacet
  facet normal 1 0 0
    outer loop
      vertex 104 0 0
      vertex 104 36 2
      vertex 104 34 2
    endloop
  endfacet
  facet normal 1 0 0
    outer loop
      vertex 104 0 0
      vertex 104 34 2
      vertex 104 2 2
    endloop
  endfacet
  facet normal 1 0 0
    outer loop
      vertex 104 36 2
      vertex 104 0 0
      vertex 104 104 0
    endloop
  endfacet
  facet normal 1 0 0
    outer loop
      vertex 104 0 0
      vertex 104 2 2
      vertex 104 0 34
    endloop
  endfacet
  facet normal 1 -0 0
    outer loop
      vertex 104 70 34
      vertex 104 102 2
      vertex 104 102 34
    endloop
  endfacet
  facet normal 1 0 0
    outer loop
      vertex 104 102 2
      vertex 104 70 34
      vertex 104 70 2
    endloop
  endfacet
  facet normal 1 -0 0
    outer loop
      vertex 104 36 34
      vertex 104 68 2
      vertex 104 68 34
    endloop
  endfacet
  facet normal 1 0 0
    outer loop
      vertex 104 68 2
      vertex 104 36 34
      vertex 104 36 2
    endloop
  endfacet
  facet normal 1 -0 0
    outer loop
      vertex 104 2 34
      vertex 104 34 2
      vertex 104 34 34
    endloop
  endfacet
  facet normal 1 0 0
    outer loop
      vertex 104 34 2
      vertex 104 2 34
      vertex 104 2 2
    endloop
  endfacet
  facet normal 1 0 0
    outer loop
      vertex 10.5 2 4
      vertex 10.5 0 4
      vertex 10.5 2 2
    endloop
  endfacet
  facet normal 1 0 0
    outer loop
      vertex 10.5 36 4
      vertex 10.5 34 4
      vertex 10.5 36 2
    endloop
  endfacet
  facet normal 1 0 0
    outer loop
      vertex 10.5 70 4
      vertex 10.5 68 4
      vertex 10.5 70 2
    endloop
  endfacet
  facet normal 1 0 0
    outer loop
      vertex 10.5 102 2
      vertex 10.5 104 2
      vertex 10.5 104 4
    endloop
  endfacet
  facet normal 1 0 0
    outer loop
      vertex 10.5 102 2
      vertex 10.5 104 4
      vertex 10.5 102 4
    endloop
  endfacet
  facet normal 1 0 0
    outer loop
      vertex 10.5 104 2
      vertex 10.5 102 2
      vertex 10.5 104 0
    endloop
  endfacet
  facet normal 1 -0 0
    outer loop
      vertex 10.5 70 2
      vertex 10.5 104 0
      vertex 10.5 102 2
    endloop
  endfacet
  facet normal 1 0 0
    outer loop
      vertex 10.5 68 2
      vertex 10.5 70 2
      vertex 10.5 68 4
    endloop
  endfacet
  facet normal 1 -0 0
    outer loop
      vertex 10.5 68 2
      vertex 10.5 104 0
      vertex 10.5 70 2
    endloop
  endfacet
  facet normal 1 -0 0
    outer loop
      vertex 10.5 36 2
      vertex 10.5 104 0
      vertex 10.5 68 2
    endloop
  endfacet
  facet normal 1 0 0
    outer loop
      vertex 10.5 34 2
      vertex 10.5 36 2
      vertex 10.5 34 4
    endloop
  endfacet
  facet normal 1 0 0
    outer loop
      vertex 10.5 0 0
      vertex 10.5 36 2
      vertex 10.5 34 2
    endloop
  endfacet
  facet normal 1 0 0
    outer loop
      vertex 10.5 0 0
      vertex 10.5 34 2
      vertex 10.5 2 2
    endloop
  endfacet
  facet normal 1 0 0
    outer loop
      vertex 10.5 36 2
      vertex 10.5 0 0
      vertex 10.5 104 0
    endloop
  endfacet
  facet normal 1 0 0
    outer loop
      vertex 10.5 0 0
      vertex 10.5 2 2
      vertex 10.5 0 4
    endloop
  endfacet
  facet normal 0 0 -1
    outer loop
      vertex 10.5 0 4
      vertex 23.5 2 4
      vertex 23.5 0 4
    endloop
  endfacet
  facet normal -0 0 -1
    outer loop
      vertex 23.5 2 4
      vertex 10.5 0 4
      vertex 10.5 2 4
    endloop
  endfacet
  facet normal 0 0 -1
    outer loop
      vertex 10.5 102 4
      vertex 23.5 104 4
      vertex 23.5 102 4
    endloop
  endfacet
  facet normal -0 0 -1
    outer loop
      vertex 23.5 104 4
      vertex 10.5 102 4
      vertex 10.5 104 4
    endloop
  endfacet
  facet normal 0 0 -1
    outer loop
      vertex 10.5 34 4
      vertex 23.5 36 4
      vertex 23.5 34 4
    endloop
  endfacet
  facet normal -0 0 -1
    outer loop
      vertex 23.5 36 4
      vertex 10.5 34 4
      vertex 10.5 36 4
    endloop
  endfacet
  facet normal 0 0 -1
    outer loop
      vertex 10.5 68 4
      vertex 23.5 70 4
      vertex 23.5 68 4
    endloop
  endfacet
  facet normal -0 0 -1
    outer loop
      vertex 23.5 70 4
      vertex 10.5 68 4
      vertex 10.5 70 4
    endloop
  endfacet
  facet normal -1 0 0
    outer loop
      vertex 23.5 102 2
      vertex 23.5 104 2
      vertex 23.5 104 0
    endloop
  endfacet
  facet normal -1 0 0
    outer loop
      vertex 23.5 104 2
      vertex 23.5 102 2
      vertex 23.5 104 4
    endloop
  endfacet
  facet normal -1 0 0
    outer loop
      vertex 23.5 104 0
      vertex 23.5 70 2
      vertex 23.5 102 2
    endloop
  endfacet
  facet normal -1 0 0
    outer loop
      vertex 23.5 70 2
      vertex 23.5 68 2
      vertex 23.5 70 4
    endloop
  endfacet
  facet normal -1 0 0
    outer loop
      vertex 23.5 104 0
      vertex 23.5 68 2
      vertex 23.5 70 2
    endloop
  endfacet
  facet normal -1 0 0
    outer loop
      vertex 23.5 104 0
      vertex 23.5 36 2
      vertex 23.5 68 2
    endloop
  endfacet
  facet normal -1 0 0
    outer loop
      vertex 23.5 36 2
      vertex 23.5 34 2
      vertex 23.5 36 4
    endloop
  endfacet
  facet normal -1 0 0
    outer loop
      vertex 23.5 0 0
      vertex 23.5 36 2
      vertex 23.5 104 0
    endloop
  endfacet
  facet normal -1 -0 0
    outer loop
      vertex 23.5 36 2
      vertex 23.5 0 0
      vertex 23.5 34 2
    endloop
  endfacet
  facet normal -1 -0 0
    outer loop
      vertex 23.5 34 2
      vertex 23.5 0 0
      vertex 23.5 2 2
    endloop
  endfacet
  facet normal -1 0 0
    outer loop
      vertex 23.5 0 4
      vertex 23.5 2 2
      vertex 23.5 0 0
    endloop
  endfacet
  facet normal -1 0 0
    outer loop
      vertex 23.5 2 2
      vertex 23.5 0 4
      vertex 23.5 2 4
    endloop
  endfacet
  facet normal -1 -0 0
    outer loop
      vertex 23.5 104 4
      vertex 23.5 102 2
      vertex 23.5 102 4
    endloop
  endfacet
  facet normal -1 -0 0
    outer loop
      vertex 23.5 70 4
      vertex 23.5 68 2
      vertex 23.5 68 4
    endloop
  endfacet
  facet normal -1 -0 0
    outer loop
      vertex 23.5 36 4
      vertex 23.5 34 2
      vertex 23.5 34 4
    endloop
  endfacet
  facet normal 0 0 -1
    outer loop
      vertex 0 0 0
      vertex 10.5 104 0
      vertex 10.5 0 0
    endloop
  endfacet
  facet normal -0 0 -1
    outer loop
      vertex 10.5 104 0
      vertex 0 0 0
      vertex 0 104 0
    endloop
  endfacet
  facet normal 0 0 -1
    outer loop
      vertex 91.5 0 0
      vertex 104 104 0
      vertex 104 0 0
    endloop
  endfacet
  facet normal -0 0 -1
    outer loop
      vertex 104 104 0
      vertex 91.5 0 0
      vertex 91.5 104 0
    endloop
  endfacet
  facet normal 0 0 -1
    outer loop
      vertex 57.5 0 0
      vertex 78.5 104 0
      vertex 78.5 0 0
    endloop
  endfacet
  facet normal -0 0 -1
    outer loop
      vertex 78.5 104 0
      vertex 57.5 0 0
      vertex 57.5 104 0
    endloop
  endfacet
  facet normal 0 0 -1
    outer loop
      vertex 23.5 0 0
      vertex 44.5 104 0
      vertex 44.5 0 0
    endloop
  endfacet
  facet normal -0 0 -1
    outer loop
      vertex 44.5 104 0
      vertex 23.5 0 0
      vertex 23.5 104 0
    endloop
  endfacet
  facet normal 0 -1 0
    outer loop
      vertex 57.5 0 0
      vertex 78.5 0 4
      vertex 57.5 0 4
    endloop
  endfacet
  facet normal 0 -1 -0
    outer loop
      vertex 78.5 0 4
      vertex 57.5 0 0
      vertex 78.5 0 0
    endloop
  endfacet
  facet normal 0 -1 0
    outer loop
      vertex 23.5 0 0
      vertex 44.5 0 4
      vertex 23.5 0 4
    endloop
  endfacet
  facet normal 0 -1 -0
    outer loop
      vertex 44.5 0 4
      vertex 23.5 0 0
      vertex 44.5 0 0
    endloop
  endfacet
  facet normal 0 -1 0
    outer loop
      vertex 23.5 0 4
      vertex 0 0 34
      vertex 10.5 0 4
    endloop
  endfacet
  facet normal 0 -1 0
    outer loop
      vertex 0 0 0
      vertex 10.5 0 4
      vertex 0 0 34
    endloop
  endfacet
  facet normal 0 -1 -0
    outer loop
      vertex 10.5 0 4
      vertex 0 0 0
      vertex 10.5 0 0
    endloop
  endfacet
  facet normal 0 -1 0
    outer loop
      vertex 44.5 0 4
      vertex 0 0 34
      vertex 23.5 0 4
    endloop
  endfacet
  facet normal 0 -1 0
    outer loop
      vertex 57.5 0 4
      vertex 0 0 34
      vertex 44.5 0 4
    endloop
  endfacet
  facet normal 0 -1 0
    outer loop
      vertex 0 0 34
      vertex 57.5 0 4
      vertex 104 0 34
    endloop
  endfacet
  facet normal 0 -1 0
    outer loop
      vertex 78.5 0 4
      vertex 104 0 34
      vertex 57.5 0 4
    endloop
  endfacet
  facet normal 0 -1 0
    outer loop
      vertex 91.5 0 4
      vertex 104 0 34
      vertex 78.5 0 4
    endloop
  endfacet
  facet normal 0 -1 0
    outer loop
      vertex 104 0 0
      vertex 91.5 0 4
      vertex 91.5 0 0
    endloop
  endfacet
  facet normal 0 -1 0
    outer loop
      vertex 91.5 0 4
      vertex 104 0 0
      vertex 104 0 34
    endloop
  endfacet
  facet normal 1 0 0
    outer loop
      vertex 44.5 2 4
      vertex 44.5 0 4
      vertex 44.5 2 2
    endloop
  endfacet
  facet normal 1 0 0
    outer loop
      vertex 44.5 36 4
      vertex 44.5 34 4
      vertex 44.5 36 2
    endloop
  endfacet
  facet normal 1 0 0
    outer loop
      vertex 44.5 70 4
      vertex 44.5 68 4
      vertex 44.5 70 2
    endloop
  endfacet
  facet normal 1 0 0
    outer loop
      vertex 44.5 102 2
      vertex 44.5 104 2
      vertex 44.5 104 4
    endloop
  endfacet
  facet normal 1 0 0
    outer loop
      vertex 44.5 102 2
      vertex 44.5 104 4
      vertex 44.5 102 4
    endloop
  endfacet
  facet normal 1 0 0
    outer loop
      vertex 44.5 104 2
      vertex 44.5 102 2
      vertex 44.5 104 0
    endloop
  endfacet
  facet normal 1 -0 0
    outer loop
      vertex 44.5 70 2
      vertex 44.5 104 0
      vertex 44.5 102 2
    endloop
  endfacet
  facet normal 1 0 0
    outer loop
      vertex 44.5 68 2
      vertex 44.5 70 2
      vertex 44.5 68 4
    endloop
  endfacet
  facet normal 1 -0 0
    outer loop
      vertex 44.5 68 2
      vertex 44.5 104 0
      vertex 44.5 70 2
    endloop
  endfacet
  facet normal 1 -0 0
    outer loop
      vertex 44.5 36 2
      vertex 44.5 104 0
      vertex 44.5 68 2
    endloop
  endfacet
  facet normal 1 0 0
    outer loop
      vertex 44.5 34 2
      vertex 44.5 36 2
      vertex 44.5 34 4
    endloop
  endfacet
  facet normal 1 0 0
    outer loop
      vertex 44.5 0 0
      vertex 44.5 36 2
      vertex 44.5 34 2
    endloop
  endfacet
  facet normal 1 0 0
    outer loop
      vertex 44.5 0 0
      vertex 44.5 34 2
      vertex 44.5 2 2
    endloop
  endfacet
  facet normal 1 0 0
    outer loop
      vertex 44.5 36 2
      vertex 44.5 0 0
      vertex 44.5 104 0
    endloop
  endfacet
  facet normal 1 0 0
    outer loop
      vertex 44.5 0 0
      vertex 44.5 2 2
      vertex 44.5 0 4
    endloop
  endfacet
  facet normal 0 0 -1
    outer loop
      vertex 44.5 0 4
      vertex 57.5 2 4
      vertex 57.5 0 4
    endloop
  endfacet
  facet normal -0 0 -1
    outer loop
      vertex 57.5 2 4
      vertex 44.5 0 4
      vertex 44.5 2 4
    endloop
  endfacet
  facet normal 0 0 -1
    outer loop
      vertex 44.5 102 4
      vertex 57.5 104 4
      vertex 57.5 102 4
    endloop
  endfacet
  facet normal -0 0 -1
    outer loop
      vertex 57.5 104 4
      vertex 44.5 102 4
      vertex 44.5 104 4
    endloop
  endfacet
  facet normal 0 0 -1
    outer loop
      vertex 44.5 34 4
      vertex 57.5 36 4
      vertex 57.5 34 4
    endloop
  endfacet
  facet normal -0 0 -1
    outer loop
      vertex 57.5 36 4
      vertex 44.5 34 4
      vertex 44.5 36 4
    endloop
  endfacet
  facet normal 0 0 -1
    outer loop
      vertex 44.5 68 4
      vertex 57.5 70 4
      vertex 57.5 68 4
    endloop
  endfacet
  facet normal -0 0 -1
    outer loop
      vertex 57.5 70 4
      vertex 44.5 68 4
      vertex 44.5 70 4
    endloop
  endfacet
  facet normal -1 0 0
    outer loop
      vertex 57.5 102 2
      vertex 57.5 104 2
      vertex 57.5 104 0
    endloop
  endfacet
  facet normal -1 0 0
    outer loop
      vertex 57.5 104 2
      vertex 57.5 102 2
      vertex 57.5 104 4
    endloop
  endfacet
  facet normal -1 0 0
    outer loop
      vertex 57.5 104 0
      vertex 57.5 70 2
      vertex 57.5 102 2
    endloop
  endfacet
  facet normal -1 0 0
    outer loop
      vertex 57.5 70 2
      vertex 57.5 68 2
      vertex 57.5 70 4
    endloop
  endfacet
  facet normal -1 0 0
    outer loop
      vertex 57.5 104 0
      vertex 57.5 68 2
      vertex 57.5 70 2
    endloop
  endfacet
  facet normal -1 0 0
    outer loop
      vertex 57.5 104 0
      vertex 57.5 36 2
      vertex 57.5 68 2
    endloop
  endfacet
  facet normal -1 0 0
    outer loop
      vertex 57.5 36 2
      vertex 57.5 34 2
      vertex 57.5 36 4
    endloop
  endfacet
  facet normal -1 0 0
    outer loop
      vertex 57.5 0 0
      vertex 57.5 36 2
      vertex 57.5 104 0
    endloop
  endfacet
  facet normal -1 -0 0
    outer loop
      vertex 57.5 36 2
      vertex 57.5 0 0
      vertex 57.5 34 2
    endloop
  endfacet
  facet normal -1 -0 0
    outer loop
      vertex 57.5 34 2
      vertex 57.5 0 0
      vertex 57.5 2 2
    endloop
  endfacet
  facet normal -1 0 0
    outer loop
      vertex 57.5 0 4
      vertex 57.5 2 2
      vertex 57.5 0 0
    endloop
  endfacet
  facet normal -1 0 0
    outer loop
      vertex 57.5 2 2
      vertex 57.5 0 4
      vertex 57.5 2 4
    endloop
  endfacet
  facet normal -1 -0 0
    outer loop
      vertex 57.5 104 4
      vertex 57.5 102 2
      vertex 57.5 102 4
    endloop
  endfacet
  facet normal -1 -0 0
    outer loop
      vertex 57.5 70 4
      vertex 57.5 68 2
      vertex 57.5 68 4
    endloop
  endfacet
  facet normal -1 -0 0
    outer loop
      vertex 57.5 36 4
      vertex 57.5 34 2
      vertex 57.5 34 4
    endloop
  endfacet
  facet normal 1 0 0
    outer loop
      vertex 78.5 2 4
      vertex 78.5 0 4
      vertex 78.5 2 2
    endloop
  endfacet
  facet normal 1 0 0
    outer loop
      vertex 78.5 36 4
      vertex 78.5 34 4
      vertex 78.5 36 2
    endloop
  endfacet
  facet normal 1 0 0
    outer loop
      vertex 78.5 70 4
      vertex 78.5 68 4
      vertex 78.5 70 2
    endloop
  endfacet
  facet normal 1 0 0
    outer loop
      vertex 78.5 102 2
      vertex 78.5 104 2
      vertex 78.5 104 4
    endloop
  endfacet
  facet normal 1 0 0
    outer loop
      vertex 78.5 102 2
      vertex 78.5 104 4
      vertex 78.5 102 4
    endloop
  endfacet
  facet normal 1 0 0
    outer loop
      vertex 78.5 104 2
      vertex 78.5 102 2
      vertex 78.5 104 0
    endloop
  endfacet
  facet normal 1 -0 0
    outer loop
      vertex 78.5 70 2
      vertex 78.5 104 0
      vertex 78.5 102 2
    endloop
  endfacet
  facet normal 1 0 0
    outer loop
      vertex 78.5 68 2
      vertex 78.5 70 2
      vertex 78.5 68 4
    endloop
  endfacet
  facet normal 1 -0 0
    outer loop
      vertex 78.5 68 2
      vertex 78.5 104 0
      vertex 78.5 70 2
    endloop
  endfacet
  facet normal 1 -0 0
    outer loop
      vertex 78.5 36 2
      vertex 78.5 104 0
      vertex 78.5 68 2
    endloop
  endfacet
  facet normal 1 0 0
    outer loop
      vertex 78.5 34 2
      vertex 78.5 36 2
      vertex 78.5 34 4
    endloop
  endfacet
  facet normal 1 0 0
    outer loop
      vertex 78.5 0 0
      vertex 78.5 36 2
      vertex 78.5 34 2
    endloop
  endfacet
  facet normal 1 0 0
    outer loop
      vertex 78.5 0 0
      vertex 78.5 34 2
      vertex 78.5 2 2
    endloop
  endfacet
  facet normal 1 0 0
    outer loop
      vertex 78.5 36 2
      vertex 78.5 0 0
      vertex 78.5 104 0
    endloop
  endfacet
  facet normal 1 0 0
    outer loop
      vertex 78.5 0 0
      vertex 78.5 2 2
      vertex 78.5 0 4
    endloop
  endfacet
  facet normal 0 0 -1
    outer loop
      vertex 78.5 0 4
      vertex 91.5 2 4
      vertex 91.5 0 4
    endloop
  endfacet
  facet normal -0 0 -1
    outer loop
      vertex 91.5 2 4
      vertex 78.5 0 4
      vertex 78.5 2 4
    endloop
  endfacet
  facet normal 0 0 -1
    outer loop
      vertex 78.5 102 4
      vertex 91.5 104 4
      vertex 91.5 102 4
    endloop
  endfacet
  facet normal -0 0 -1
    outer loop
      vertex 91.5 104 4
      vertex 78.5 102 4
      vertex 78.5 104 4
    endloop
  endfacet
  facet normal 0 0 -1
    outer loop
      vertex 78.5 34 4
      vertex 91.5 36 4
      vertex 91.5 34 4
    endloop
  endfacet
  facet normal -0 0 -1
    outer loop
      vertex 91.5 36 4
      vertex 78.5 34 4
      vertex 78.5 36 4
    endloop
  endfacet
  facet normal 0 0 -1
    outer loop
      vertex 78.5 68 4
      vertex 91.5 70 4
      vertex 91.5 68 4
    endloop
  endfacet
  facet normal -0 0 -1
    outer loop
      vertex 91.5 70 4
      vertex 78.5 68 4
      vertex 78.5 70 4
    endloop
  endfacet
  facet normal -1 0 0
    outer loop
      vertex 91.5 102 2
      vertex 91.5 104 2
      vertex 91.5 104 0
    endloop
  endfacet
  facet normal -1 0 0
    outer loop
      vertex 91.5 104 2
      vertex 91.5 102 2
      vertex 91.5 104 4
    endloop
  endfacet
  facet normal -1 0 0
    outer loop
      vertex 91.5 104 0
      vertex 91.5 70 2
      vertex 91.5 102 2
    endloop
  endfacet
  facet normal -1 0 0
    outer loop
      vertex 91.5 70 2
      vertex 91.5 68 2
      vertex 91.5 70 4
    endloop
  endfacet
  facet normal -1 0 0
    outer loop
      vertex 91.5 104 0
      vertex 91.5 68 2
      vertex 91.5 70 2
    endloop
  endfacet
  facet normal -1 0 0
    outer loop
      vertex 91.5 104 0
      vertex 91.5 36 2
      vertex 91.5 68 2
    endloop
  endfacet
  facet normal -1 0 0
    outer loop
      vertex 91.5 36 2
      vertex 91.5 34 2
      vertex 91.5 36 4
    endloop
  endfacet
  facet normal -1 0 0
    outer loop
      vertex 91.5 0 0
      vertex 91.5 36 2
      vertex 91.5 104 0
    endloop
  endfacet
  facet normal -1 -0 0
    outer loop
      vertex 91.5 36 2
      vertex 91.5 0 0
      vertex 91.5 34 2
    endloop
  endfacet
  facet normal -1 -0 0
    outer loop
      vertex 91.5 34 2
      vertex 91.5 0 0
      vertex 91.5 2 2
    endloop
  endfacet
  facet normal -1 0 0
    outer loop
      vertex 91.5 0 4
      vertex 91.5 2 2
      vertex 91.5 0 0
    endloop
  endfacet
  facet normal -1 0 0
    outer loop
      vertex 91.5 2 2
      vertex 91.5 0 4
      vertex 91.5 2 4
    endloop
  endfacet
  facet normal -1 -0 0
    outer loop
      vertex 91.5 104 4
      vertex 91.5 102 2
      vertex 91.5 102 4
    endloop
  endfacet
  facet normal -1 -0 0
    outer loop
      vertex 91.5 70 4
      vertex 91.5 68 2
      vertex 91.5 68 4
    endloop
  endfacet
  facet normal -1 -0 0
    outer loop
      vertex 91.5 36 4
      vertex 91.5 34 2
      vertex 91.5 34 4
    endloop
  endfacet
  facet normal -1 0 0
    outer loop
      vertex 0 0 0
      vertex 0 104 34
      vertex 0 104 0
    endloop
  endfacet
  facet normal -1 -0 0
    outer loop
      vertex 0 104 34
      vertex 0 0 0
      vertex 0 0 34
    endloop
  endfacet
endsolid OpenSCAD_Model
